<?xml version="1.0" standalone="no"?><!DOCTYPE svg PUBLIC "-//W3C//DTD SVG 1.1//EN" "http://www.w3.org/Graphics/SVG/1.1/DTD/svg11.dtd"><svg t="1531291409840" class="icon" style="" viewBox="0 0 1024 1024" version="1.1" xmlns="http://www.w3.org/2000/svg" p-id="797" xmlns:xlink="http://www.w3.org/1999/xlink" width="200" height="200"><defs><style type="text/css"></style></defs><path d="M0 277.4L277.4 0h45.3L0 322.7v-45.3zM927.6 1024l96.4-96.4v-45.3L882.3 1024h45.3z m-181 0L1024 746.6v-45.3L701.3 1024h45.3zM0 865.6L865.6 0h-45.3L0 820.4v45.2z m0-362L503.6 0h-45.3L0 458.4v45.2z m0-361.9L141.7 0H96.4L0 96.4v45.3zM203.6 1024L1024 203.6v-45.3L158.3 1024h45.3zM0 684.6L684.6 0h-45.3L0 639.4v45.2zM1024 0h-22.6L0 1001.4v22.6h22.6L1024 22.6V0zM384.6 1024L1024 384.6v-45.3L339.3 1024h45.3z m181 0L1024 565.6v-45.3L520.3 1024h45.3z" fill="#F1F1F1" p-id="798"></path><path d="M536 536m-384 0a384 384 0 1 0 768 0 384 384 0 1 0-768 0Z" fill="#FF5D5D" p-id="799"></path><path d="M504 904c-54 0-106.4-10.6-155.7-31.4-47.6-20.1-90.4-49-127.1-85.7s-65.6-79.5-85.7-127.1C114.6 610.4 104 558 104 504s10.6-106.4 31.4-155.7c20.1-47.6 49-90.4 85.7-127.1s79.5-65.6 127.1-85.7C397.6 114.6 450 104 504 104s106.4 10.6 155.7 31.4c47.6 20.1 90.4 49 127.1 85.7 36.7 36.7 65.6 79.5 85.7 127.1C893.4 397.6 904 450 904 504s-10.6 106.4-31.4 155.7c-20.1 47.6-49 90.4-85.7 127.1s-79.5 65.6-127.1 85.7C610.4 893.4 558 904 504 904z m0-768c-98.3 0-190.7 38.3-260.2 107.8S136 405.7 136 504s38.3 190.7 107.8 260.2S405.7 872 504 872s190.7-38.3 260.2-107.8S872 602.3 872 504s-38.3-190.7-107.8-260.2S602.3 136 504 136z m0 656c-76.9 0-149.3-30-203.6-84.4C246 653.3 216 580.9 216 504s30-149.3 84.4-203.6S427.1 216 504 216s149.3 30 203.6 84.4C762 354.7 792 427.1 792 504s-30 149.3-84.4 203.6C653.3 762 580.9 792 504 792z m0-544c-68.4 0-132.7 26.6-181 75-48.4 48.4-75 112.6-75 181s26.6 132.7 75 181c48.4 48.4 112.6 75 181 75s132.7-26.6 181-75c48.4-48.4 75-112.6 75-181s-26.6-132.7-75-181c-48.3-48.4-112.6-75-181-75zM348.4 478.5c14.1-14.1 36.9-14.1 50.9 0s14.1 36.9 0 50.9-36.9 14.1-50.9 0-14-36.8 0-50.9z m130.1-130.1c14.1-14.1 36.9-14.1 50.9 0 14.1 14.1 14.1 36.9 0 50.9-14.1 14.1-36.9 14.1-50.9 0s-14-36.8 0-50.9z m0 260.2c14.1-14.1 36.9-14.1 50.9 0 14.1 14.1 14.1 36.9 0 50.9-14.1 14.1-36.9 14.1-50.9 0-14-14-14-36.8 0-50.9z m130.1-130.1c14.1-14.1 36.9-14.1 50.9 0 14.1 14.1 14.1 36.9 0 50.9-14.1 14.1-36.9 14.1-50.9 0-14-14-14-36.8 0-50.9z" fill="#1E1E1E" p-id="800"></path></svg>