<?xml version="1.0" standalone="no"?><!DOCTYPE svg PUBLIC "-//W3C//DTD SVG 1.1//EN" "http://www.w3.org/Graphics/SVG/1.1/DTD/svg11.dtd"><svg t="1531293907535" class="icon" style="" viewBox="0 0 1024 1024" version="1.1" xmlns="http://www.w3.org/2000/svg" p-id="930" xmlns:xlink="http://www.w3.org/1999/xlink" width="200" height="200"><defs><style type="text/css"></style></defs><path d="M233.4 201.7v471.7l-0.1 0.1V201.8c0-0.1 0.1-0.1 0.1-0.1z" fill="#5677FC" p-id="931"></path><path d="M233.3 703.4c-5.2 0-10.4-1.3-15-4-9.3-5.4-15-15.3-15-26V201.8c0-7.9 3.1-15.5 8.7-21.1 1.8-1.8 3.8-3.4 5.9-4.7 9.3-5.6 20.8-5.8 30.3-0.5 9.4 5.3 15.3 15.3 15.3 26.1v471.7c0 10.8-5.8 20.7-15.1 26l-0.1 0.1c-4.7 2.7-9.9 4-15 4z" fill="#2A36B1" p-id="932"></path><path d="M372.7 118.9v474l-0.1 0.1V118.9h0.1z" fill="#5677FC" p-id="933"></path><path d="M372.6 623c-5.2 0-10.4-1.4-15.1-4.1-9.2-5.4-14.9-15.3-14.9-25.9V118.9c0-11.4 6.4-21.8 16.6-26.8 2.5-1.2 5.1-2.1 7.8-2.7 8.8-1.7 17.9 0.6 24.8 6.3 6.9 5.7 10.9 14.2 10.9 23.2v474c0 10.8-5.8 20.7-15.1 26l-0.1 0.1c-4.6 2.7-9.8 4-14.9 4zM150.9 751c-10.3 0-20.4-5.4-26-14.9-4.7-8-9.2-16.4-13.4-24.8-31-62.2-46.7-129.2-46.7-199.1 0-64.6 13.5-126.9 40.1-185.2 25.7-56.4 62.1-106 108.3-147.5 8.8-7.9 21.5-9.9 32.3-5.1 10.8 4.8 17.8 15.6 17.8 27.4v471.6c0 10.7-5.7 20.6-15 26L165.8 747c-4.7 2.7-9.8 4-14.9 4z m52.4-472.4c-50.5 66.7-78.5 148.8-78.5 233.6 0 58.7 12.8 115 37.9 167.4l40.5-23.4V278.6z" fill="#2A36B1" p-id="934"></path><path d="M372.6 118.9V593l-139.2 80.3V201.7c40.2-36.1 87.3-64.4 139.2-82.8z" fill="#5677FC" p-id="935"></path><path d="M233.4 703.3c-5.2 0-10.4-1.3-15-4-9.3-5.4-15-15.3-15-26V201.7c0-8.5 3.6-16.6 10-22.3 43.8-39.3 94-69.1 149.2-88.7 9.2-3.3 19.4-1.8 27.3 3.8 8 5.6 12.7 14.8 12.7 24.5v474c0 10.7-5.7 20.6-15 26l-139.1 80.3c-4.7 2.7-9.9 4-15.1 4z m30-488v406l79.1-45.7V164c-28.2 13.7-54.7 30.9-79.1 51.3z" fill="#2A36B1" p-id="936"></path><path d="M372.7 622.9c-5.2 0-10.4-1.3-15-4-9.3-5.4-15-15.3-15-26v-474c0-12.7 8-24 20-28.3 47.8-16.9 98-25.5 149.1-25.5 8 0 15.6 3.2 21.2 8.8 5.6 5.6 8.8 13.3 8.8 21.2l-0.1 417.5c0 10.7-5.7 20.6-15 26l-139.1 80.3c-4.5 2.7-9.7 4-14.9 4z m30-482.2V541l79.1-45.7v-369c-26.8 2-53.3 6.8-79.1 14.4z" fill="#2A36B1" p-id="937"></path><path d="M870 721.3l-0.5-0.2" fill="#5677FC" p-id="938"></path><path d="M854.63 747.122l29.67-52.152 0.522 0.297-29.67 52.152z" fill="#2A36B1" p-id="939"></path><path d="M147.4 721l-0.5 0.3" fill="#5677FC" p-id="940"></path><path d="M131.976 695.315l0.521-0.297 29.718 52.122-0.521 0.297z" fill="#2A36B1" p-id="941"></path><path d="M382.1 908.5l408.5-235.8 0.1 0.1-408.5 235.8s-0.1 0-0.1-0.1z" fill="#5677FC" p-id="942"></path><path d="M382.2 938.6c-2.6 0-5.2-0.3-7.8-1-2.5-0.7-4.8-1.6-7-2.8-9.4-5.3-15.3-15.2-15.4-26-0.1-10.8 5.6-20.8 15-26.2l408.5-235.8c9.3-5.4 20.8-5.4 30.1 0l0.1 0.1c9.3 5.4 15 15.3 14.9 26 0 10.7-5.7 20.6-15 25.9L397.2 934.6c-4.6 2.6-9.7 4-15 4z" fill="#2A36B1" p-id="943"></path><path d="M240.7 829.3l410.5-237 0.1 0.1-410.6 237c0.1 0 0.1-0.1 0-0.1z" fill="#5677FC" p-id="944"></path><path d="M240.8 859.4c-5.8 0-11.5-1.7-16.5-4.9-2.3-1.5-4.3-3.3-6.1-5.3-6-6.7-8.6-15.8-7.1-24.7s6.8-16.7 14.6-21.2l410.5-237c9.3-5.4 20.8-5.4 30.1 0l0.1 0.1c9.3 5.4 15 15.3 14.9 26 0 10.7-5.7 20.6-15 25.9l-410.6 237c-4.5 2.8-9.7 4.1-14.9 4.1zM511.7 959.3c-47 0-93.5-7.4-138.8-22.2-11.3-3.7-19.3-13.6-20.5-25.4-1.2-11.8 4.6-23.2 14.8-29.1l408.5-235.8c9.3-5.4 20.7-5.4 30 0l82.5 47.6c14.3 8.3 19.3 26.6 11 40.9-4.6 8.1-9.6 16.1-14.8 24-38.4 57.9-88.5 105-149.1 140-55.9 32.3-116.6 51.8-180.4 57.9-14.5 1.4-28.9 2.1-43.2 2.1z m-48-63.1c83 10.3 168.1-6.4 241.5-48.8 50.8-29.4 93.2-68.5 126-116.5l-40.5-23.4-327 188.7z" fill="#2A36B1" p-id="945"></path><path d="M240.8 829.4l410.6-237 139.2 80.3-408.5 235.8c-51.3-16.7-99.4-43.4-141.3-79.1z" fill="#5677FC" p-id="946"></path><path d="M382.1 938.5c-3.1 0-6.3-0.5-9.3-1.5-55.9-18.3-106.9-46.8-151.4-84.8-7.4-6.3-11.3-15.9-10.4-25.6 0.9-9.7 6.4-18.4 14.9-23.2l410.6-237c9.3-5.4 20.7-5.4 30 0l139.2 80.3c9.3 5.4 15 15.3 15 26s-5.7 20.6-15 26L397.1 934.5c-4.6 2.7-9.8 4-15 4z m-87.3-105.6c26.1 17.6 54.2 32 84.1 42.9l351.6-203-79.1-45.8-356.6 205.9z" fill="#2A36B1" p-id="947"></path><path d="M240.7 859.3c-7 0-13.9-2.4-19.5-7.2-38.6-32.9-71.1-72.1-96.7-116.4-4-6.9-5.1-15.1-3-22.8 2.1-7.7 7.1-14.2 14-18.2L497.2 486c9.3-5.4 20.7-5.4 30 0l139.1 80.3c9.3 5.4 15 15.3 15 26s-5.7 20.6-15 26l-410.5 237c-4.7 2.7-9.9 4-15.1 4z m-48.2-128.2c15.2 22.3 32.7 42.8 52.1 61.3l346.6-200.1-79.1-45.7-319.6 184.5z" fill="#2A36B1" p-id="948"></path><path d="M920.4 426.3L511.9 190.5v-0.2l408.5 235.8c-0.1 0.1-0.1 0.2 0 0.2z" fill="#5677FC" p-id="949"></path><path d="M920.4 456.3c-5.2 0-10.4-1.3-15-4L496.9 216.5c-9.3-5.4-15.1-15.4-15-26.2v-0.2c0.1-10.7 5.8-20.5 15.1-25.8 9.3-5.3 20.7-5.3 29.9 0l408.5 235.8c6.9 4 11.9 10.5 14 18.2 0.7 2.4 1 5 1.1 7.4 0.2 10.8-5.5 20.9-14.8 26.4-4.8 2.8-10.1 4.2-15.3 4.2z" fill="#2A36B1" p-id="950"></path><path d="M922.4 588.3l-410.5-237v-0.2l410.6 237c-0.1 0.1-0.1 0.2-0.1 0.2z" fill="#5677FC" p-id="951"></path><path d="M922.4 618.3c-5.2 0-10.4-1.4-15-4l-410.5-237c-9.3-5.4-15-15.3-15-26.1v-0.2c0-10.7 5.8-20.6 15-25.9 9.3-5.3 20.7-5.3 30 0l410.6 237c9.9 5.7 15.7 16.5 14.9 27.9-0.2 2.7-0.7 5.4-1.6 8-2.9 8.5-9.5 15.2-17.9 18.3-3.4 1.4-7 2-10.5 2z" fill="#2A36B1" p-id="952"></path><path d="M920.3 456.1c-5.2 0-10.3-1.3-15-4L496.9 216.3c-9.3-5.4-15-15.3-15-26V95.1c0-16.5 13.4-30 29.9-30 9.3 0 18.8 0.3 28.2 0.8C609.3 70.2 675.2 90 735.8 125c55.9 32.3 103.2 75.1 140.4 127.3 35.9 50.4 60.7 106.8 73.5 167.6 2.4 11.6-2.1 23.5-11.7 30.5-5.3 3.8-11.5 5.7-17.7 5.7zM541.9 173l327 188.8c-32.6-77.1-89.6-142.3-163.1-184.8-50.8-29.4-106-46.4-163.9-50.8V173z" fill="#2A36B1" p-id="953"></path><path d="M922.4 588.2l-410.6-237V190.5l408.5 235.8c11.2 52.8 12.1 107.8 2.1 161.9z" fill="#5677FC" p-id="954"></path><path d="M922.4 618.2c-5.2 0-10.4-1.3-15-4l-410.6-237c-9.3-5.4-15-15.3-15-26V190.5c0-10.7 5.7-20.6 15-26s20.7-5.4 30 0l408.5 235.8c7.4 4.3 12.6 11.5 14.4 19.8 12.1 57.6 12.9 115.9 2.2 173.5-1.8 9.6-8.1 17.7-16.9 21.8-4 1.9-8.3 2.8-12.6 2.8zM541.9 333.8l356.6 205.9c2.2-31.4 0.6-62.9-4.9-94.2L542 242.5l-0.1 91.3z" fill="#2A36B1" p-id="955"></path><path d="M873.4 750.7c-5.2 0-10.4-1.4-15-4L496.9 537.9c-9.3-5.4-15-15.3-15-26V351.3c0-10.7 5.7-20.6 15-26 9.3-5.4 20.7-5.4 30 0l410.5 237c11 6.4 16.8 19 14.5 31.5-9.3 49.9-26.9 97.6-52.5 141.9-4 6.9-10.5 11.9-18.2 14-2.6 0.7-5.2 1-7.8 1zM541.9 494.6l319.6 184.6c11.7-24.3 20.7-49.7 27.1-75.8L541.9 403.3v91.3z" fill="#2A36B1" p-id="956"></path></svg>